# AST/ASF file generated using VICON BodyLanguage
# -----------------------------------------------
:version 1.10
:name VICON
:units
  mass 1.0
  length 0.45
  angle deg
:documentation
   .ast/.asf automatically generated from VICON data using
   VICON BodyBuilder and BodyLanguage model FoxedUp or BRILLIANT.MOD
:root
   order TX TY TZ RX RY RZ
   axis XYZ
   position 0 0 0  
   orientation 0 0 0 
:bonedata
  begin
     id 1 
     name lhipjoint
     direction 0.621036 -0.695554 0.361275 
     length 2.46325 
     axis 0 0 0  XYZ
  end
  begin
     id 2 
     name lfemur
     direction 0.34202 -0.939693 0  
     length 6.54784  
     axis 0 0 20  XYZ
    dof rx ry rz
    limits (-160.0 20.0)
           (-70.0 70.0)
           (-60.0 70.0)
  end
  begin
     id 3 
     name ltibia
     direction 0.34202 -0.939693 0   
     length 7.84737   
     axis 0 0 20   XYZ
    dof rx
    limits (-10.0 170.0)
  end
  begin
     id 4 
     name lfoot
     direction 0.0790693 -0.217241 0.97291   
     length 2.59747   
     axis -90 7.62852e-016 20   XYZ
    dof rx rz
    limits (-45.0 90.0)
           (-70.0 20.0)
  end
  begin
     id 5 
     name ltoes
     direction 1.53572e-011 -4.21898e-011 1   
     length 1.29919   
     axis -90 7.62852e-016 20   XYZ
    dof rx
    limits (-90.0 20.0)
  end
  begin
     id 6 
     name rhipjoint
     direction -0.602353 -0.708375 0.367935   
     length 2.41867  
     axis 0 0 0  XYZ 
  end
  begin
     id 7 
     name rfemur
     direction -0.34202 -0.939693 0   
     length 6.92065   
     axis 0 0 -20   XYZ
    dof rx ry rz
    limits (-160.0 20.0)
           (-70.0 70.0)
           (-70.0 60.0)
  end
  begin
     id 8 
     name rtibia
     direction -0.34202 -0.939693 0   
     length 7.88883   
     axis 0 0 -20   XYZ
    dof rx
    limits (-10.0 170.0)
 end
 begin
     id 9 
     name rfoot
     direction -0.0768692 -0.211196 0.974416   
     length 2.43714  
     axis -90 -7.62852e-016 -20   XYZ
    dof rx rz
    limits (-45.0 90.0)
           (-20.0 70.0)
  end
  begin
     id 10 
     name rtoes
     direction -1.53575e-011 -4.21933e-011 1   
     length 1.22113   
     axis -90 -7.62852e-016 -20   XYZ
    dof rx
    limits (-90.0 20.0)
  end
  begin
     id 11 
     name lowerback
     direction 0.0197937 0.98943 -0.143655   
     length 2.16931   
     axis 0 0 0   XYZ
    dof rx ry rz
    limits (-20.0 45.0)
           (-30.0 30.0)
           (-30.0 30.0)
  end
  begin
     id 12 
     name upperback
     direction -0.00183968 0.999975 0.00684288   
     length 2.17221   
     axis 0 0 0   XYZ
    dof rx ry rz
    limits (-20.0 45.0)
           (-30.0 30.0)
           (-30.0 30.0)
  end
  begin
     id 13 
     name thorax
     direction -0.00950244 0.997208 0.0740685   
     length 2.22549   
     axis 0 0 0   XYZ
    dof rx ry rz
    limits (-20.0 45.0)
           (-30.0 30.0)
           (-30.0 30.0)
  end
  begin
     id 14 
     name lowerneck
     direction 0.0218238 0.996215 0.0841425   
     length 1.77269   
     axis 0 0 0   XYZ
    dof rx ry rz
    limits (-20.0 45.0)
           (-30.0 30.0)
           (-30.0 30.0)
  end
  begin
     id 15 
     name upperneck
     direction -0.00430652 0.994214 -0.107332   
     length 1.76534   
     axis 0 0 0   XYZ
    dof rx ry rz
    limits (-20.0 45.0)
           (-30.0 30.0)
           (-30.0 30.0)
  end
  begin
     id 16
     name head
     direction -0.00328946 0.998959 -0.0454998  
     length 1.82634  
     axis 0 0 0   XYZ
    dof rx ry rz
    limits (-20.0 45.0)
           (-30.0 30.0)
           (-30.0 30.0)
  end
  begin
     id 17 
     name lclavicle
     direction 0.970962 0.239191 0.00450212  
     length 3.84872  
     axis 0 0 0   XYZ
    dof ry rz
    limits (-20.0 10.0)
           (0.0 20.0)
  end
  begin
     id 18 
     name lhumerus
     direction 1 -4.48966e-011 5.74696e-028   
     length 5.22771   
     axis 180 -30 -90   XYZ
    dof rx ry rz
    limits (-60.0 90.0)
           (-90.0 90.0)
           (-90.0 90.0)
  end
  begin
     id 19
     name lradius
     direction 1 -4.4896e-011 4.25109e-027   
     length 3.45251   
     axis 180 -30 -90   XYZ
    dof rx
    limits (-10.0 170.0)
  end
  begin
     id 20
     name lwrist
     direction 1 -4.48971e-011 1.15382e-027   
     length 1.72626   
     axis -5.52449e-016 90 90   XYZ
    dof ry
    limits (-180.0 0.0)
 end
  begin
     id 21 
     name lhand
     direction 1 -4.49034e-011 2.30765e-027   
     length 0.552119   
     axis -1.47248e-015 90 90   XYZ
    dof rx rz
    limits (-90.0 90.0)
           (-45.0 45.0)
  end
  begin
     id 22 
     name lfingers
     direction 1 -4.48951e-011 4.61529e-027   
     length 0.445133   
     axis -2.94495e-015 90 90   XYZ
    dof rx
    limits (0.0 90.0)
  end
  begin
     id 23
     name lthumb
     direction 0.707107 -6.34991e-011 0.707107   
     length 0.639124   
     axis -90 45 2.85299e-015   XYZ
    dof rx rz
    limits (-45.0 45.0)
           (-45.0 45.0)
  end
  begin
     id 24 
     name rclavicle
     direction -0.97424 0.222511 -0.0366699   
     length 3.73439  
     axis 0 0 0   XYZ 
    dof ry rz
    limits (-10.0 20.0)
           (-20.0 0.0)
  end
  begin
     id 25 
     name rhumerus
     direction -1 -4.48956e-011 -4.97258e-028  
     length 5.2398   
     axis 180 30 90   XYZ
    dof rx ry rz
    limits (-90.0 60.0)
           (-90.0 90.0)
           (-90.0 90.0)
  end
  begin
     id 26 
     name rradius
     direction -1 -4.4897e-011 -1.72611e-027   
     length 3.48042   
     axis 180 30 90   XYZ
    dof rx
    limits (-10.0 170.0)
  end
  begin
     id 27 
     name rwrist
     direction -1 -4.48976e-011 1.15382e-027   
     length 1.74021   
     axis -5.52449e-016 -90 -90   XYZ
    dof ry
    limits (-180.0 0.0)
  end
  begin
     id 28
     name rhand
     direction -1 -4.48963e-011 2.30765e-027   
     length 0.618713   
     axis -1.47248e-015 -90 -90   XYZ
    dof rx rz
    limits (-90.0 90.0)
           (-45.0 45.0)
  end
  begin
     id 29
     name rfingers
     direction -1 -4.4888e-011 4.61529e-027   
     length 0.498823   
     axis -2.94495e-015 -90 -90   XYZ
    dof rx
    limits (0.0 90.0)
  end
  begin
     id 30
     name rthumb
     direction -0.707107 -6.34968e-011 0.707107   
     length 0.716213   
     axis -90 -45 -2.85299e-015   XYZ
    dof rx rz
    limits (-45.0 45.0)
           (-45.0 45.0)
  end
:hierarchy
  begin
    root lhipjoint rhipjoint lowerback
    lhipjoint lfemur
    lfemur ltibia
    ltibia lfoot
    lfoot ltoes
    rhipjoint rfemur
    rfemur rtibia
    rtibia rfoot
    rfoot rtoes
    lowerback upperback
    upperback thorax
    thorax lowerneck lclavicle rclavicle
    lowerneck upperneck
    upperneck head
    lclavicle lhumerus
    lhumerus lradius
    lradius lwrist
    lwrist lhand lthumb
    lhand lfingers
    rclavicle rhumerus
    rhumerus rradius
    rradius rwrist
    rwrist rhand rthumb
    rhand rfingers
  end

#!OML:ASF G:\JayActor3\Patient Classification 1\Patient 1\Session 5\male.ASF
:FULLY-SPECIFIED
:DEGREES
202
root -36.6682 16.7949 -7.26003 -16.853 82.8811 -17.5997
lowerback 2.00137 -1.05196 -0.460312
upperback 2.08753 -1.38414 -0.396388
thorax 1.01724 -0.686189 -0.132985
lowerneck -7.1244 0.354858 1.97788
upperneck 4.4208 0.1195 3.08037
head 2.64427 0.211266 0.652675
rclavicle -2.01269e-014 -1.59028e-015
rhumerus -33.0321 -8.8968 -84.3039
rradius 25.741
rwrist 3.01593
rhand -18.6495 -6.83607
rfingers 7.12502
rthumb 7.6435 -36.6779
lclavicle -2.01269e-014 -1.59028e-015
lhumerus -31.391 4.23063 85.5792
lradius 23.1477
lwrist 14.4856
lhand -17.1182 13.2804
lfingers 7.12502
lthumb 9.12132 43.0632
rfemur -37.1949 4.88453 21.7538
rtibia 39.5831
rfoot -22.8042 -14.6826
rtoes -5.80344
lfemur 16.9792 11.1248 -22.4097
ltibia 5.08889e-014
lfoot -15.9814 7.26835
ltoes -2.89852
203
root -36.6037 16.7944 -7.26046 -16.3678 82.9577 -17.1689
lowerback 1.97664 -1.06005 -0.547632
upperback 2.07464 -1.3958 -0.414329
thorax 1.01956 -0.693045 -0.102708
lowerneck -7.12901 0.330582 1.94969
upperneck 4.40236 0.0877492 3.12715
head 2.63926 0.196444 0.671135
rclavicle 3.12092e-014 -2.78299e-015
rhumerus -33.0642 -8.99771 -84.2461
rradius 25.6734
rwrist 3.10476
rhand -18.66 -6.81575
rfingers 7.12502
rthumb 7.63333 -36.658
lclavicle 3.12092e-014 -2.78299e-015
lhumerus -31.3795 4.23343 85.5782
lradius 23.15
lwrist 14.4676
lhand -17.1362 13.2633
lfingers 7.12502
lthumb 9.10394 43.0468
rfemur -37.2923 5.08066 21.7076
rtibia 38.3278
rfoot -22.8044 -14.4454
rtoes -6.25612
lfemur 17.1581 11.1855 -22.4527
ltibia 5.08889e-014
lfoot -16.1017 7.17963
ltoes -3.02764
204
root -36.5378 16.7935 -7.2602 -15.7832 83.0304 -16.6313
lowerback 1.95912 -1.06292 -0.643198
upperback 2.05789 -1.40065 -0.435653
thorax 1.01402 -0.69655 -0.0711584
lowerneck -7.11521 0.305872 1.92172
upperneck 4.38124 0.0560265 3.17555
head 2.62995 0.181493 0.689973
rclavicle -3.12589e-014 7.95139e-015
rhumerus -33.1021 -9.0835 -84.1954
rradius 25.6027
rwrist 3.1837
rhand -18.6609 -6.80923
rfingers 7.12502
rthumb 7.63248 -36.6515
lclavicle -3.12589e-014 7.95139e-015
lhumerus -31.3748 4.24646 85.5718
lradius 23.1366
lwrist 14.4385
lhand -17.1496 13.2543
lfingers 7.12502
lthumb 9.09095 43.0383
rfemur -37.3915 5.27777 21.6465
rtibia 37.1479
rfoot -22.8244 -14.2073
rtoes -6.70767
lfemur 17.3475 11.2523 -22.5021
ltibia 4.45278e-014
lfoot -16.2092 7.09786
ltoes -3.18212
205
root -36.4707 16.7919 -7.25916 -15.1661 83.1042 -16.0591
lowerback 1.94547 -1.06447 -0.74107
upperback 2.03806 -1.40381 -0.457722
thorax 1.00319 -0.699206 -0.0389814
lowerneck -7.09033 0.283018 1.89243
upperneck 4.36019 0.0271549 3.22637
head 2.61861 0.167923 0.709897
rclavicle -2.83765e-014 -3.97569e-015
rhumerus -33.1418 -9.13596 -84.1607
rradius 25.5364
rwrist 3.23342
rhand -18.6671 -6.82274
rfingers 7.12502
rthumb 7.62648 -36.6652
lclavicle -2.83765e-014 -3.97569e-015
lhumerus -31.3707 4.26599 85.5618
lradius 23.1092
lwrist 14.4083
lhand -17.1608 13.2558
lfingers 7.12502
lthumb 9.08016 43.0403
rfemur -37.503 5.44429 21.5912
rtibia 36.0481
rfoot -23.0439 -13.9057
rtoes -6.65789
lfemur 17.5388 11.3174 -22.5515
ltibia 3.49861e-014
lfoot -16.3009 7.03111
ltoes -3.38357
206
root -36.4023 16.789 -7.25742 -14.4995 83.1782 -15.4371
lowerback 1.93201 -1.06543 -0.843634
upperback 2.0172 -1.40624 -0.479026
thorax 0.991362 -0.701537 -0.00338897
lowerneck -7.06074 0.26359 1.86194
upperneck 4.33872 0.00320608 3.27595
head 2.60624 0.156667 0.729826
rclavicle -1.83379e-014 -3.18055e-015
rhumerus -33.1819 -9.16058 -84.136
rradius 25.4804
rwrist 3.27018
rhand -18.6512 -6.86138
rfingers 7.12502
rthumb 7.64181 -36.7033
lclavicle -1.83379e-014 -3.18055e-015
lhumerus -31.3672 4.29823 85.5507
lradius 23.0747
lwrist 14.3718
lhand -17.1701 13.2755
lfingers 7.12502
lthumb 9.07117 43.0604
rfemur -37.6258 5.5549 21.5522
rtibia 35.0337
rfoot -23.3477 -13.5515
rtoes -6.37048
lfemur 17.7288 11.3818 -22.6025
ltibia 9.54166e-015
lfoot -16.3858 6.98172
ltoes -3.62838
207
root -36.333 16.7852 -7.255 -13.8251 83.2621 -14.8135
lowerback 1.91511 -1.06836 -0.945637
upperback 1.99374 -1.41131 -0.499916
thorax 0.978817 -0.70516 0.0322974
lowerneck -7.02778 0.244992 1.83744
upperneck 4.31706 -0.0196794 3.31797
head 2.59316 0.145728 0.74631
rclavicle -2.88238e-014 5.96354e-015
rhumerus -33.222 -9.16846 -84.1183
rradius 25.4322
rwrist 3.29431
rhand -18.6335 -6.90533
rfingers 7.12502
rthumb 7.65888 -36.7466
lclavicle -2.88238e-014 5.96354e-015
lhumerus -31.3629 4.32997 85.5413
lradius 23.0346
lwrist 14.3406
lhand -17.1797 13.3018
lfingers 7.12502
lthumb 9.06194 43.0872
rfemur -37.7638 5.57905 21.5458
rtibia 34.1055
rfoot -23.6571 -13.1841
rtoes -6.07046
lfemur 17.912 11.4345 -22.6536
ltibia -1.59028e-014
lfoot -16.4708 6.9323
ltoes -3.8675
208
root -36.2618 16.78 -7.25216 -13.2185 83.3336 -14.2584
lowerback 1.87275 -1.06828 -1.0354
upperback 1.98363 -1.4117 -0.513193
thorax 0.994071 -0.706425 0.0681746
lowerneck -6.9987 0.230526 1.814
upperneck 4.28767 -0.0365224 3.35034
head 2.57815 0.137331 0.759727
rclavicle 1.35671e-014 3.97569e-016
rhumerus -33.2377 -9.17215 -84.0982
rradius 25.3766
rwrist 3.31772
rhand -18.6223 -6.91736
rfingers 7.12502
rthumb 7.6697 -36.7583
lclavicle 1.35671e-014 3.97569e-016
lhumerus -31.341 4.36512 85.5416
lradius 22.9935
lwrist 14.3123
lhand -17.1807 13.3466
lfingers 7.12502
lthumb 9.06095 43.132
rfemur -37.9059 5.51304 21.6008
rtibia 33.2627
rfoot -23.9236 -12.8384
rtoes -5.9086
lfemur 18.1043 11.4953 -22.6892
ltibia -6.67916e-014
lfoot -16.5644 6.88752
ltoes -4.13625
209
root -36.1889 16.7739 -7.24898 -12.6966 83.4023 -13.7877
lowerback 1.82531 -1.0672 -1.10821
upperback 1.97548 -1.41042 -0.522915
thorax 1.01385 -0.706714 0.0980647
lowerneck -6.97431 0.217082 1.79646
upperneck 4.26515 -0.0524191 3.37251
head 2.56628 0.129296 0.768944
rclavicle -4.82053e-015 1.19271e-015
rhumerus -33.2459 -9.18332 -84.0732
rradius 25.3165
rwrist 3.35528
rhand -18.5989 -6.91197
rfingers 7.12502
rthumb 7.69232 -36.7521
lclavicle -4.82053e-015 1.19271e-015
lhumerus -31.3187 4.38999 85.5495
lradius 22.9558
lwrist 14.2956
lhand -17.1829 13.3978
lfingers 7.12502
lthumb 9.05887 43.1832
rfemur -38.0447 5.34603 21.7197
rtibia 32.5011
rfoot -24.087 -12.5366
rtoes -5.99307
lfemur 18.3093 11.5549 -22.7111
ltibia -1.90833e-014
lfoot -16.6606 6.84221
ltoes -4.39022
210
root -36.1147 16.7673 -7.24527 -12.2468 83.4724 -13.4074
lowerback 1.75249 -1.06617 -1.17103
upperback 1.9682 -1.40878 -0.526329
thorax 1.04863 -0.70686 0.128275
lowerneck -6.96168 0.208173 1.79314
upperneck 4.24317 -0.0629736 3.37537
head 2.55664 0.123587 0.769767
rclavicle -2.83268e-015 -2.78299e-015
rhumerus -33.2375 -9.20992 -84.0389
rradius 25.246
rwrist 3.40594
rhand -18.5755 -6.87845
rfingers 7.12502
rthumb 7.71485 -36.7177
lclavicle -2.83268e-015 -2.78299e-015
lhumerus -31.2902 4.40897 85.5668
lradius 22.9252
lwrist 14.283
lhand -17.1765 13.4456
lfingers 7.12502
lthumb 9.06504 43.2308
rfemur -38.1985 5.10188 21.8909
rtibia 31.8145
rfoot -24.1612 -12.317
rtoes -6.31698
lfemur 18.5076 11.6084 -22.7224
ltibia 4.13472e-014
lfoot -16.7575 6.78288
ltoes -4.60831
211
root -36.039 16.7604 -7.24103 -11.931 83.5393 -13.1713
lowerback 1.67884 -1.06513 -1.21354
upperback 1.95152 -1.40717 -0.524429
thorax 1.07387 -0.706823 0.152667
lowerneck -6.94907 0.201826 1.79409
upperneck 4.23519 -0.0706916 3.37224
head 2.55166 0.119397 0.768144
rclavicle -6.4605e-015 -2.78299e-015
rhumerus -33.2368 -9.24039 -84.0002
rradius 25.1773
rwrist 3.46741
rhand -18.5539 -6.81892
rfingers 7.12502
rthumb 7.73576 -36.6574
lclavicle -6.4605e-015 -2.78299e-015
lhumerus -31.2745 4.41877 85.5884
lradius 22.9023
lwrist 14.2762
lhand -17.1753 13.4884
lfingers 7.12502
lthumb 9.06623 43.2736
rfemur -38.3539 4.81328 22.1082
rtibia 31.1973
rfoot -24.2195 -12.1557
rtoes -6.73444
lfemur 18.7092 11.6596 -22.7139
ltibia -3.18055e-014
lfoot -16.8482 6.71535
ltoes -4.78049
212
root -35.9622 16.7532 -7.23618 -11.6821 83.6106 -13.0186
lowerback 1.60659 -1.06472 -1.24376
upperback 1.92336 -1.40658 -0.521138
thorax 1.08628 -0.707135 0.171799
lowerneck -6.94804 0.196345 1.80717
upperneck 4.24229 -0.0787292 3.3589
head 2.55384 0.115286 0.761276
rclavicle -2.35063e-014 -1.15295e-014
rhumerus -33.2408 -9.28519 -83.9574
rradius 25.111
rwrist 3.54035
rhand -18.5246 -6.77625
rfingers 7.12502
rthumb 7.76401 -36.6137
lclavicle -2.35063e-014 -1.15295e-014
lhumerus -31.2706 4.41334 85.6142
lradius 22.891
lwrist 14.2763
lhand -17.1723 13.5151
lfingers 7.12502
lthumb 9.06905 43.3002
rfemur -38.5143 4.51273 22.3393
rtibia 30.6435
rfoot -24.2282 -12.0923
rtoes -7.43175
lfemur 18.9021 11.7028 -22.6977
ltibia 5.40694e-014
lfoot -16.9157 6.65158
ltoes -4.94697
